<svg width="960" height="335" xmlns="http://www.w3.org/2000/svg"><path d="M501,186L510,126L462,134Z" fill="#9a9a9a" stroke="#9a9a9a" stroke-width="1.51"></path><path d="M462,134L429,208L501,186Z" fill="#969696" stroke="#969696" stroke-width="1.51"></path><path d="M510,126L442,58L462,134Z" fill="#a8a8a8" stroke="#a8a8a8" stroke-width="1.51"></path><path d="M579,66L521,58L510,126Z" fill="#a6a6a6" stroke="#a6a6a6" stroke-width="1.51"></path><path d="M462,134L388,184L429,208Z" fill="#9a9a9a" stroke="#9a9a9a" stroke-width="1.51"></path><path d="M368,133L388,184L462,134Z" fill="#a4a4a4" stroke="#a4a4a4" stroke-width="1.51"></path><path d="M521,58L442,58L510,126Z" fill="#acacac" stroke="#acacac" stroke-width="1.51"></path><path d="M501,186L598,133L510,126Z" fill="#959595" stroke="#959595" stroke-width="1.51"></path><path d="M501,186L597,195L598,133Z" fill="#8b8b8b" stroke="#8b8b8b" stroke-width="1.51"></path><path d="M571,281L597,195L501,186Z" fill="#7f7f7f" stroke="#7f7f7f" stroke-width="1.51"></path><path d="M442,58L368,133L462,134Z" fill="#aeaeae" stroke="#aeaeae" stroke-width="1.51"></path><path d="M450,273L509,277L501,186Z" fill="#818181" stroke="#818181" stroke-width="1.51"></path><path d="M450,273L501,186L429,208Z" fill="#8a8a8a" stroke="#8a8a8a" stroke-width="1.51"></path><path d="M598,133L579,66L510,126Z" fill="#9d9d9d" stroke="#9d9d9d" stroke-width="1.51"></path><path d="M392,284L450,273L429,208Z" fill="#868686" stroke="#868686" stroke-width="1.51"></path><path d="M521,58L459,8L442,58Z" fill="#b6b6b6" stroke="#b6b6b6" stroke-width="1.51"></path><path d="M442,58L367,52L368,133Z" fill="#b8b8b8" stroke="#b8b8b8" stroke-width="1.51"></path><path d="M526,-12L459,8L521,58Z" fill="#b7b7b7" stroke="#b7b7b7" stroke-width="1.51"></path><path d="M509,277L571,281L501,186Z" fill="#7c7c7c" stroke="#7c7c7c" stroke-width="1.51"></path><path d="M385,8L367,52L442,58Z" fill="#c0c0c0" stroke="#c0c0c0" stroke-width="1.51"></path><path d="M597,195L647,189L598,133Z" fill="#858585" stroke="#858585" stroke-width="1.51"></path><path d="M598,133L663,79L579,66Z" fill="#9b9b9b" stroke="#9b9b9b" stroke-width="1.51"></path><path d="M655,272L647,189L597,195Z" fill="#777777" stroke="#777777" stroke-width="1.51"></path><path d="M388,184L392,284L429,208Z" fill="#909090" stroke="#909090" stroke-width="1.51"></path><path d="M450,273L454,329L509,277Z" fill="#777777" stroke="#777777" stroke-width="1.51"></path><path d="M509,277L505,335L571,281Z" fill="#6f6f6f" stroke="#6f6f6f" stroke-width="1.51"></path><path d="M323,269L392,284L388,184Z" fill="#8f8f8f" stroke="#8f8f8f" stroke-width="1.51"></path><path d="M580,6L526,-12L521,58Z" fill="#b2b2b2" stroke="#b2b2b2" stroke-width="1.51"></path><path d="M579,66L580,6L521,58Z" fill="#ababab" stroke="#ababab" stroke-width="1.51"></path><path d="M651,-9L580,6L579,66Z" fill="#aaaaaa" stroke="#aaaaaa" stroke-width="1.51"></path><path d="M647,189L662,121L598,133Z" fill="#898989" stroke="#898989" stroke-width="1.51"></path><path d="M392,284L454,329L450,273Z" fill="#7b7b7b" stroke="#7b7b7b" stroke-width="1.51"></path><path d="M454,-79L385,8L459,8Z" fill="#c6c6c6" stroke="#c6c6c6" stroke-width="1.51"></path><path d="M459,8L385,8L442,58Z" fill="#bfbfbf" stroke="#bfbfbf" stroke-width="1.51"></path><path d="M454,329L505,335L509,277Z" fill="#6e6e6e" stroke="#6e6e6e" stroke-width="1.51"></path><path d="M368,133L305,184L388,184Z" fill="#a6a6a6" stroke="#a6a6a6" stroke-width="1.51"></path><path d="M295,149L305,184L368,133Z" fill="#adadad" stroke="#adadad" stroke-width="1.51"></path><path d="M295,149L368,133L308,53Z" fill="#bababa" stroke="#bababa" stroke-width="1.51"></path><path d="M662,121L663,79L598,133Z" fill="#939393" stroke="#939393" stroke-width="1.51"></path><path d="M308,53L368,133L367,52Z" fill="#bebebe" stroke="#bebebe" stroke-width="1.51"></path><path d="M571,281L655,272L597,195Z" fill="#727272" stroke="#727272" stroke-width="1.51"></path><path d="M505,335L580,329L571,281Z" fill="#676767" stroke="#676767" stroke-width="1.51"></path><path d="M392,284L378,333L454,329Z" fill="#777777" stroke="#777777" stroke-width="1.51"></path><path d="M305,184L323,269L388,184Z" fill="#9c9c9c" stroke="#9c9c9c" stroke-width="1.51"></path><path d="M293,328L323,269L244,255Z" fill="#8e8e8e" stroke="#8e8e8e" stroke-width="1.51"></path><path d="M580,329L655,272L571,281Z" fill="#686868" stroke="#686868" stroke-width="1.51"></path><path d="M647,189L706,189L662,121Z" fill="#808080" stroke="#808080" stroke-width="1.51"></path><path d="M297,12L308,53L367,52Z" fill="#cacaca" stroke="#cacaca" stroke-width="1.51"></path><path d="M323,269L378,333L392,284Z" fill="#838383" stroke="#838383" stroke-width="1.51"></path><path d="M454,329L443,395L505,335Z" fill="#636363" stroke="#636363" stroke-width="1.51"></path><path d="M655,272L706,189L647,189Z" fill="#747474" stroke="#747474" stroke-width="1.51"></path><path d="M662,121L711,120L663,79Z" fill="#909090" stroke="#909090" stroke-width="1.51"></path><path d="M706,189L711,120L662,121Z" fill="#848484" stroke="#848484" stroke-width="1.51"></path><path d="M663,79L651,-9L579,66Z" fill="#a2a2a2" stroke="#a2a2a2" stroke-width="1.51"></path><path d="M580,6L586,-65L526,-12Z" fill="#b6b6b6" stroke="#b6b6b6" stroke-width="1.51"></path><path d="M712,6L651,-9L663,79Z" fill="#a1a1a1" stroke="#a1a1a1" stroke-width="1.51"></path><path d="M526,-12L454,-79L459,8Z" fill="#c1c1c1" stroke="#c1c1c1" stroke-width="1.51"></path><path d="M385,8L297,12L367,52Z" fill="#c9c9c9" stroke="#c9c9c9" stroke-width="1.51"></path><path d="M518,-88L454,-79L526,-12Z" fill="#c2c2c2" stroke="#c2c2c2" stroke-width="1.51"></path><path d="M651,-9L586,-65L580,6Z" fill="#b0b0b0" stroke="#b0b0b0" stroke-width="1.51"></path><path d="M369,-58L297,12L385,8Z" fill="#cfcfcf" stroke="#cfcfcf" stroke-width="1.51"></path><path d="M308,53L254,65L295,149Z" fill="#c2c2c2" stroke="#c2c2c2" stroke-width="1.51"></path><path d="M586,-65L518,-88L526,-12Z" fill="#bcbcbc" stroke="#bcbcbc" stroke-width="1.51"></path><path d="M454,-79L369,-58L385,8Z" fill="#cdcdcd" stroke="#cdcdcd" stroke-width="1.51"></path><path d="M378,333L443,395L454,329Z" fill="#686868" stroke="#686868" stroke-width="1.51"></path><path d="M505,335L577,404L580,329Z" fill="#585858" stroke="#585858" stroke-width="1.51"></path><path d="M655,272L716,259L706,189Z" fill="#6b6b6b" stroke="#6b6b6b" stroke-width="1.51"></path><path d="M580,329L657,338L655,272Z" fill="#5f5f5f" stroke="#5f5f5f" stroke-width="1.51"></path><path d="M577,404L657,338L580,329Z" fill="#525252" stroke="#525252" stroke-width="1.51"></path><path d="M706,189L788,127L711,120Z" fill="#7f7f7f" stroke="#7f7f7f" stroke-width="1.51"></path><path d="M714,324L716,259L655,272Z" fill="#606060" stroke="#606060" stroke-width="1.51"></path><path d="M244,255L323,269L305,184Z" fill="#9b9b9b" stroke="#9b9b9b" stroke-width="1.51"></path><path d="M297,12L254,65L308,53Z" fill="#cccccc" stroke="#cccccc" stroke-width="1.51"></path><path d="M711,120L721,51L663,79Z" fill="#939393" stroke="#939393" stroke-width="1.51"></path><path d="M651,-9L634,-72L586,-65Z" fill="#b2b2b2" stroke="#b2b2b2" stroke-width="1.51"></path><path d="M788,127L721,51L711,120Z" fill="#8b8b8b" stroke="#8b8b8b" stroke-width="1.51"></path><path d="M443,395L502,413L505,335Z" fill="#585858" stroke="#585858" stroke-width="1.51"></path><path d="M378,333L363,406L443,395Z" fill="#636363" stroke="#636363" stroke-width="1.51"></path><path d="M323,269L293,328L378,333Z" fill="#828282" stroke="#828282" stroke-width="1.51"></path><path d="M228,194L305,184L295,149Z" fill="#acacac" stroke="#acacac" stroke-width="1.51"></path><path d="M254,65L227,135L295,149Z" fill="#bebebe" stroke="#bebebe" stroke-width="1.51"></path><path d="M227,135L228,194L295,149Z" fill="#b3b3b3" stroke="#b3b3b3" stroke-width="1.51"></path><path d="M502,413L577,404L505,335Z" fill="#525252" stroke="#525252" stroke-width="1.51"></path><path d="M228,194L244,255L305,184Z" fill="#a3a3a3" stroke="#a3a3a3" stroke-width="1.51"></path><path d="M721,51L712,6L663,79Z" fill="#9a9a9a" stroke="#9a9a9a" stroke-width="1.51"></path><path d="M728,-70L634,-72L651,-9Z" fill="#acacac" stroke="#acacac" stroke-width="1.51"></path><path d="M586,-65L634,-72L518,-88Z" fill="#bababa" stroke="#bababa" stroke-width="1.51"></path><path d="M657,338L714,324L655,272Z" fill="#5b5b5b" stroke="#5b5b5b" stroke-width="1.51"></path><path d="M704,397L714,324L657,338Z" fill="#4b4b4b" stroke="#4b4b4b" stroke-width="1.51"></path><path d="M308,399L363,406L378,333Z" fill="#686868" stroke="#686868" stroke-width="1.51"></path><path d="M443,395L363,406L502,413Z" fill="#575757" stroke="#575757" stroke-width="1.51"></path><path d="M716,259L769,205L706,189Z" fill="#6d6d6d" stroke="#6d6d6d" stroke-width="1.51"></path><path d="M721,51L771,-2L712,6Z" fill="#9b9b9b" stroke="#9b9b9b" stroke-width="1.51"></path><path d="M790,269L769,205L716,259Z" fill="#636363" stroke="#636363" stroke-width="1.51"></path><path d="M297,12L245,9L254,65Z" fill="#d1d1d1" stroke="#d1d1d1" stroke-width="1.51"></path><path d="M254,65L166,81L227,135Z" fill="#c8c8c8" stroke="#c8c8c8" stroke-width="1.51"></path><path d="M300,-76L245,9L297,12Z" fill="#d7d7d7" stroke="#d7d7d7" stroke-width="1.51"></path><path d="M369,-58L300,-76L297,12Z" fill="#d7d7d7" stroke="#d7d7d7" stroke-width="1.51"></path><path d="M454,-79L300,-76L369,-58Z" fill="#d4d4d4" stroke="#d4d4d4" stroke-width="1.51"></path><path d="M254,-82L300,-76L454,-79Z" fill="#dadada" stroke="#dadada" stroke-width="1.51"></path><path d="M769,205L788,127L706,189Z" fill="#757575" stroke="#757575" stroke-width="1.51"></path><path d="M502,413L638,415L577,404Z" fill="#474747" stroke="#474747" stroke-width="1.51"></path><path d="M577,404L638,415L657,338Z" fill="#484848" stroke="#484848" stroke-width="1.51"></path><path d="M293,328L308,399L378,333Z" fill="#727272" stroke="#727272" stroke-width="1.51"></path><path d="M258,398L308,399L293,328Z" fill="#6e6e6e" stroke="#6e6e6e" stroke-width="1.51"></path><path d="M244,255L227,325L293,328Z" fill="#8c8c8c" stroke="#8c8c8c" stroke-width="1.51"></path><path d="M228,194L187,209L244,255Z" fill="#a5a5a5" stroke="#a5a5a5" stroke-width="1.51"></path><path d="M227,135L187,209L228,194Z" fill="#b0b0b0" stroke="#b0b0b0" stroke-width="1.51"></path><path d="M159,124L187,209L227,135Z" fill="#b9b9b9" stroke="#b9b9b9" stroke-width="1.51"></path><path d="M167,258L227,325L244,255Z" fill="#969696" stroke="#969696" stroke-width="1.51"></path><path d="M788,127L800,71L721,51Z" fill="#8a8a8a" stroke="#8a8a8a" stroke-width="1.51"></path><path d="M712,6L728,-70L651,-9Z" fill="#a6a6a6" stroke="#a6a6a6" stroke-width="1.51"></path><path d="M800,71L771,-2L721,51Z" fill="#939393" stroke="#939393" stroke-width="1.51"></path><path d="M868,122L841,78L788,127Z" fill="#7b7b7b" stroke="#7b7b7b" stroke-width="1.51"></path><path d="M788,127L841,78L800,71Z" fill="#838383" stroke="#838383" stroke-width="1.51"></path><path d="M772,326L790,269L716,259Z" fill="#595959" stroke="#595959" stroke-width="1.51"></path><path d="M772,326L716,259L714,324Z" fill="#575757" stroke="#575757" stroke-width="1.51"></path><path d="M638,415L704,397L657,338Z" fill="#444444" stroke="#444444" stroke-width="1.51"></path><path d="M771,-2L728,-70L712,6Z" fill="#a1a1a1" stroke="#a1a1a1" stroke-width="1.51"></path><path d="M634,-72L728,-70L518,-88Z" fill="#b4b4b4" stroke="#b4b4b4" stroke-width="1.51"></path><path d="M704,397L772,326L714,324Z" fill="#484848" stroke="#484848" stroke-width="1.51"></path><path d="M245,9L166,81L254,65Z" fill="#d0d0d0" stroke="#d0d0d0" stroke-width="1.51"></path><path d="M166,-1L166,81L245,9Z" fill="#d8d8d8" stroke="#d8d8d8" stroke-width="1.51"></path><path d="M166,81L159,124L227,135Z" fill="#c6c6c6" stroke="#c6c6c6" stroke-width="1.51"></path><path d="M300,-76L254,-82L245,9Z" fill="#dddddd" stroke="#dddddd" stroke-width="1.51"></path><path d="M518,-88L254,-82L454,-79Z" fill="#d0d0d0" stroke="#d0d0d0" stroke-width="1.51"></path><path d="M227,325L258,398L293,328Z" fill="#797979" stroke="#797979" stroke-width="1.51"></path><path d="M308,399L258,398L363,406Z" fill="#656565" stroke="#656565" stroke-width="1.51"></path><path d="M187,209L167,258L244,255Z" fill="#a1a1a1" stroke="#a1a1a1" stroke-width="1.51"></path><path d="M227,325L182,389L258,398Z" fill="#757575" stroke="#757575" stroke-width="1.51"></path><path d="M110,199L167,258L187,209Z" fill="#aaaaaa" stroke="#aaaaaa" stroke-width="1.51"></path><path d="M167,258L176,327L227,325Z" fill="#919191" stroke="#919191" stroke-width="1.51"></path><path d="M254,-82L166,-1L245,9Z" fill="#dedede" stroke="#dedede" stroke-width="1.51"></path><path d="M166,81L118,130L159,124Z" fill="#c9c9c9" stroke="#c9c9c9" stroke-width="1.51"></path><path d="M800,71L862,-5L771,-2Z" fill="#909090" stroke="#909090" stroke-width="1.51"></path><path d="M771,-2L802,-61L728,-70Z" fill="#a0a0a0" stroke="#a0a0a0" stroke-width="1.51"></path><path d="M851,190L788,127L769,205Z" fill="#6f6f6f" stroke="#6f6f6f" stroke-width="1.51"></path><path d="M790,269L851,190L769,205Z" fill="#636363" stroke="#636363" stroke-width="1.51"></path><path d="M859,254L851,190L790,269Z" fill="#5a5a5a" stroke="#5a5a5a" stroke-width="1.51"></path><path d="M93,67L118,130L166,81Z" fill="#d0d0d0" stroke="#d0d0d0" stroke-width="1.51"></path><path d="M159,124L110,199L187,209Z" fill="#b6b6b6" stroke="#b6b6b6" stroke-width="1.51"></path><path d="M167,258L107,254L176,327Z" fill="#9b9b9b" stroke="#9b9b9b" stroke-width="1.51"></path><path d="M862,-5L802,-61L771,-2Z" fill="#969696" stroke="#969696" stroke-width="1.51"></path><path d="M841,78L862,-5L800,71Z" fill="#878787" stroke="#878787" stroke-width="1.51"></path><path d="M851,190L868,122L788,127Z" fill="#717171" stroke="#717171" stroke-width="1.51"></path><path d="M851,190L925,127L868,122Z" fill="#696969" stroke="#696969" stroke-width="1.51"></path><path d="M842,324L859,254L790,269Z" fill="#505050" stroke="#505050" stroke-width="1.51"></path><path d="M842,324L790,269L772,326Z" fill="#4e4e4e" stroke="#4e4e4e" stroke-width="1.51"></path><path d="M118,130L110,199L159,124Z" fill="#bfbfbf" stroke="#bfbfbf" stroke-width="1.51"></path><path d="M176,327L182,389L227,325Z" fill="#808080" stroke="#808080" stroke-width="1.51"></path><path d="M89,326L182,389L176,327Z" fill="#838383" stroke="#838383" stroke-width="1.51"></path><path d="M704,397L789,401L772,326Z" fill="#3e3e3e" stroke="#3e3e3e" stroke-width="1.51"></path><path d="M638,415L789,401L704,397Z" fill="#3b3b3b" stroke="#3b3b3b" stroke-width="1.51"></path><path d="M789,401L842,324L772,326Z" fill="#3f3f3f" stroke="#3f3f3f" stroke-width="1.51"></path><path d="M110,199L107,254L167,258Z" fill="#a7a7a7" stroke="#a7a7a7" stroke-width="1.51"></path><path d="M254,-82L173,-88L166,-1Z" fill="#e5e5e5" stroke="#e5e5e5" stroke-width="1.51"></path><path d="M166,-1L93,67L166,81Z" fill="#d8d8d8" stroke="#d8d8d8" stroke-width="1.51"></path><path d="M518,-88L173,-88L254,-82Z" fill="#dddddd" stroke="#dddddd" stroke-width="1.51"></path><path d="M936,82L862,-5L841,78Z" fill="#7f7f7f" stroke="#7f7f7f" stroke-width="1.51"></path><path d="M118,130L46,189L110,199Z" fill="#bbbbbb" stroke="#bbbbbb" stroke-width="1.51"></path><path d="M42,264L89,326L107,254Z" fill="#9f9f9f" stroke="#9f9f9f" stroke-width="1.51"></path><path d="M109,-11L93,67L166,-1Z" fill="#dfdfdf" stroke="#dfdfdf" stroke-width="1.51"></path><path d="M112,-75L109,-11L166,-1Z" fill="#e6e6e6" stroke="#e6e6e6" stroke-width="1.51"></path><path d="M920,267L920,208L859,254Z" fill="#4e4e4e" stroke="#4e4e4e" stroke-width="1.51"></path><path d="M859,254L920,208L851,190Z" fill="#585858" stroke="#585858" stroke-width="1.51"></path><path d="M868,122L936,82L841,78Z" fill="#767676" stroke="#767676" stroke-width="1.51"></path><path d="M920,208L925,127L851,190Z" fill="#5f5f5f" stroke="#5f5f5f" stroke-width="1.51"></path><path d="M46,189L107,254L110,199Z" fill="#b1b1b1" stroke="#b1b1b1" stroke-width="1.51"></path><path d="M107,254L89,326L176,327Z" fill="#969696" stroke="#969696" stroke-width="1.51"></path><path d="M789,401L847,406L842,324Z" fill="#343434" stroke="#343434" stroke-width="1.51"></path><path d="M842,324L920,267L859,254Z" fill="#4a4a4a" stroke="#4a4a4a" stroke-width="1.51"></path><path d="M638,415L847,406L789,401Z" fill="#353535" stroke="#353535" stroke-width="1.51"></path><path d="M802,-61L860,-80L728,-70Z" fill="#9f9f9f" stroke="#9f9f9f" stroke-width="1.51"></path><path d="M728,-70L860,-80L518,-88Z" fill="#ababab" stroke="#ababab" stroke-width="1.51"></path><path d="M862,-5L860,-80L802,-61Z" fill="#959595" stroke="#959595" stroke-width="1.51"></path><path d="M911,-62L860,-80L862,-5Z" fill="#8f8f8f" stroke="#8f8f8f" stroke-width="1.51"></path><path d="M173,-88L112,-75L166,-1Z" fill="#e8e8e8" stroke="#e8e8e8" stroke-width="1.51"></path><path d="M29,70L29,150L93,67Z" fill="#d5d5d5" stroke="#d5d5d5" stroke-width="1.51"></path><path d="M988,124L936,82L925,127Z" fill="#686868" stroke="#686868" stroke-width="1.51"></path><path d="M928,353L920,267L842,324Z" fill="#3d3d3d" stroke="#3d3d3d" stroke-width="1.51"></path><path d="M29,150L118,130L93,67Z" fill="#cdcdcd" stroke="#cdcdcd" stroke-width="1.51"></path><path d="M29,150L46,189L118,130Z" fill="#c2c2c2" stroke="#c2c2c2" stroke-width="1.51"></path><path d="M925,127L936,82L868,122Z" fill="#6e6e6e" stroke="#6e6e6e" stroke-width="1.51"></path><path d="M988,124L925,127L992,195Z" fill="#5c5c5c" stroke="#5c5c5c" stroke-width="1.51"></path><path d="M936,82L915,-11L862,-5Z" fill="#808080" stroke="#808080" stroke-width="1.51"></path><path d="M29,70L93,67L27,7Z" fill="#dfdfdf" stroke="#dfdfdf" stroke-width="1.51"></path><path d="M46,189L42,264L107,254Z" fill="#acacac" stroke="#acacac" stroke-width="1.51"></path><path d="M-19,196L42,264L46,189Z" fill="#b5b5b5" stroke="#b5b5b5" stroke-width="1.51"></path><path d="M182,389L108,414L258,398Z" fill="#707070" stroke="#707070" stroke-width="1.51"></path><path d="M258,398L108,414L363,406Z" fill="#6a6a6a" stroke="#6a6a6a" stroke-width="1.51"></path><path d="M363,406L108,414L502,413Z" fill="#626262" stroke="#626262" stroke-width="1.51"></path><path d="M502,413L-102,421L638,415Z" fill="#5e5e5e" stroke="#5e5e5e" stroke-width="1.51"></path><path d="M89,326L108,414L182,389Z" fill="#7b7b7b" stroke="#7b7b7b" stroke-width="1.51"></path><path d="M47,408L108,414L89,326Z" fill="#7c7c7c" stroke="#7c7c7c" stroke-width="1.51"></path><path d="M27,7L93,67L109,-11Z" fill="#e2e2e2" stroke="#e2e2e2" stroke-width="1.51"></path><path d="M976,-17L911,-62L915,-11Z" fill="#838383" stroke="#838383" stroke-width="1.51"></path><path d="M915,-11L911,-62L862,-5Z" fill="#888888" stroke="#888888" stroke-width="1.51"></path><path d="M992,195L925,127L920,208Z" fill="#575757" stroke="#575757" stroke-width="1.51"></path><path d="M847,406L928,353L842,324Z" fill="#323232" stroke="#323232" stroke-width="1.51"></path><path d="M-39,145L-19,196L29,150Z" fill="#c5c5c5" stroke="#c5c5c5" stroke-width="1.51"></path><path d="M30,-81L27,7L109,-11Z" fill="#ececec" stroke="#ececec" stroke-width="1.51"></path><path d="M42,264L37,349L89,326Z" fill="#979797" stroke="#979797" stroke-width="1.51"></path><path d="M-22,336L37,349L42,264Z" fill="#989898" stroke="#989898" stroke-width="1.51"></path><path d="M936,82L992,62L915,-11Z" fill="#757575" stroke="#757575" stroke-width="1.51"></path><path d="M992,195L920,208L920,267Z" fill="#4c4c4c" stroke="#4c4c4c" stroke-width="1.51"></path><path d="M994,285L992,195L920,267Z" fill="#444444" stroke="#444444" stroke-width="1.51"></path><path d="M988,124L992,62L936,82Z" fill="#6a6a6a" stroke="#6a6a6a" stroke-width="1.51"></path><path d="M1066,80L992,62L988,124Z" fill="#656565" stroke="#656565" stroke-width="1.51"></path><path d="M-25,73L29,150L29,70Z" fill="#d7d7d7" stroke="#d7d7d7" stroke-width="1.51"></path><path d="M29,150L-19,196L46,189Z" fill="#bfbfbf" stroke="#bfbfbf" stroke-width="1.51"></path><path d="M-45,400L47,408L37,349Z" fill="#808080" stroke="#808080" stroke-width="1.51"></path><path d="M37,349L47,408L89,326Z" fill="#858585" stroke="#858585" stroke-width="1.51"></path><path d="M847,406L933,408L928,353Z" fill="#262626" stroke="#262626" stroke-width="1.51"></path><path d="M992,326L994,285L920,267Z" fill="#3a3a3a" stroke="#3a3a3a" stroke-width="1.51"></path><path d="M1042,422L933,408L847,406Z" fill="#1c1c1c" stroke="#1c1c1c" stroke-width="1.51"></path><path d="M992,62L976,-17L915,-11Z" fill="#797979" stroke="#797979" stroke-width="1.51"></path><path d="M112,-75L30,-81L109,-11Z" fill="#ededed" stroke="#ededed" stroke-width="1.51"></path><path d="M27,7L-25,73L29,70Z" fill="#e1e1e1" stroke="#e1e1e1" stroke-width="1.51"></path><path d="M173,-88L30,-81L112,-75Z" fill="#eeeeee" stroke="#eeeeee" stroke-width="1.51"></path><path d="M992,195L1050,141L988,124Z" fill="#565656" stroke="#565656" stroke-width="1.51"></path><path d="M992,326L920,267L928,353Z" fill="#363636" stroke="#363636" stroke-width="1.51"></path><path d="M-42,-7L-25,73L27,7Z" fill="#e7e7e7" stroke="#e7e7e7" stroke-width="1.51"></path><path d="M-25,73L-39,145L29,150Z" fill="#d1d1d1" stroke="#d1d1d1" stroke-width="1.51"></path><path d="M-45,268L-22,336L42,264Z" fill="#a3a3a3" stroke="#a3a3a3" stroke-width="1.51"></path><path d="M986,397L992,326L928,353Z" fill="#262626" stroke="#262626" stroke-width="1.51"></path><path d="M1066,-12L978,-65L976,-17Z" fill="#7a7a7a" stroke="#7a7a7a" stroke-width="1.51"></path><path d="M976,-17L978,-65L911,-62Z" fill="#828282" stroke="#828282" stroke-width="1.51"></path><path d="M911,-62L978,-65L860,-80Z" fill="#8a8a8a" stroke="#8a8a8a" stroke-width="1.51"></path><path d="M-45,268L42,264L-19,196Z" fill="#afafaf" stroke="#afafaf" stroke-width="1.51"></path><path d="M-94,215L-45,268L-19,196Z" fill="#b5b5b5" stroke="#b5b5b5" stroke-width="1.51"></path><path d="M933,408L986,397L928,353Z" fill="#212121" stroke="#212121" stroke-width="1.51"></path><path d="M-39,145L-94,215L-19,196Z" fill="#c1c1c1" stroke="#c1c1c1" stroke-width="1.51"></path><path d="M-25,73L-85,67L-39,145Z" fill="#dbdbdb" stroke="#dbdbdb" stroke-width="1.51"></path><path d="M30,-81L-42,-7L27,7Z" fill="#efefef" stroke="#efefef" stroke-width="1.51"></path><path d="M992,62L1066,-12L976,-17Z" fill="#737373" stroke="#737373" stroke-width="1.51"></path><path d="M1069,199L1050,141L992,195Z" fill="#4d4d4d" stroke="#4d4d4d" stroke-width="1.51"></path><path d="M1042,274L992,195L994,285Z" fill="#3f3f3f" stroke="#3f3f3f" stroke-width="1.51"></path><path d="M1042,274L994,285L992,326Z" fill="#353535" stroke="#353535" stroke-width="1.51"></path><path d="M1064,352L1042,274L992,326Z" fill="#2d2d2d" stroke="#2d2d2d" stroke-width="1.51"></path><path d="M30,-81L-40,-74L-42,-7Z" fill="#f4f4f4" stroke="#f4f4f4" stroke-width="1.51"></path><path d="M1050,141L1066,80L988,124Z" fill="#5d5d5d" stroke="#5d5d5d" stroke-width="1.51"></path><path d="M1069,199L1066,80L1050,141Z" fill="#545454" stroke="#545454" stroke-width="1.51"></path><path d="M1042,274L1069,199L992,195Z" fill="#424242" stroke="#424242" stroke-width="1.51"></path><path d="M-96,-14L-85,67L-42,-7Z" fill="#ebebeb" stroke="#ebebeb" stroke-width="1.51"></path><path d="M-42,-7L-85,67L-25,73Z" fill="#e5e5e5" stroke="#e5e5e5" stroke-width="1.51"></path><path d="M-95,344L-45,400L-22,336Z" fill="#8a8a8a" stroke="#8a8a8a" stroke-width="1.51"></path><path d="M-105,129L-94,215L-39,145Z" fill="#c8c8c8" stroke="#c8c8c8" stroke-width="1.51"></path><path d="M-95,344L-22,336L-45,268Z" fill="#9b9b9b" stroke="#9b9b9b" stroke-width="1.51"></path><path d="M-22,336L-45,400L37,349Z" fill="#888888" stroke="#888888" stroke-width="1.51"></path><path d="M47,408L-102,421L108,414Z" fill="#777777" stroke="#777777" stroke-width="1.51"></path><path d="M-85,67L-105,129L-39,145Z" fill="#d7d7d7" stroke="#d7d7d7" stroke-width="1.51"></path><path d="M-96,-14L-105,129L-85,67Z" fill="#e4e4e4" stroke="#e4e4e4" stroke-width="1.51"></path><path d="M-94,215L-99,256L-45,268Z" fill="#b1b1b1" stroke="#b1b1b1" stroke-width="1.51"></path><path d="M-105,129L-99,256L-94,215Z" fill="#bfbfbf" stroke="#bfbfbf" stroke-width="1.51"></path><path d="M1066,80L1066,-12L992,62Z" fill="#6a6a6a" stroke="#6a6a6a" stroke-width="1.51"></path><path d="M1072,-85L1066,-12L1066,80Z" fill="#6f6f6f" stroke="#6f6f6f" stroke-width="1.51"></path><path d="M986,397L1064,352L992,326Z" fill="#212121" stroke="#212121" stroke-width="1.51"></path><path d="M1042,274L1064,352L1069,199Z" fill="#353535" stroke="#353535" stroke-width="1.51"></path><path d="M-40,-74L-96,-14L-42,-7Z" fill="#f3f3f3" stroke="#f3f3f3" stroke-width="1.51"></path><path d="M986,397L1042,422L1064,352Z" fill="#181818" stroke="#181818" stroke-width="1.51"></path><path d="M933,408L1042,422L986,397Z" fill="#191919" stroke="#191919" stroke-width="1.51"></path><path d="M638,415L1042,422L847,406Z" fill="#292929" stroke="#292929" stroke-width="1.51"></path><path d="M-102,421L1042,422L638,415Z" fill="#494949" stroke="#494949" stroke-width="1.51"></path><path d="M-99,256L-95,344L-45,268Z" fill="#a6a6a6" stroke="#a6a6a6" stroke-width="1.51"></path><path d="M-102,421L-95,344L-99,256Z" fill="#949494" stroke="#949494" stroke-width="1.51"></path><path d="M1066,-12L1072,-85L978,-65Z" fill="#787878" stroke="#787878" stroke-width="1.51"></path><path d="M978,-65L1072,-85L860,-80Z" fill="#838383" stroke="#838383" stroke-width="1.51"></path><path d="M860,-80L1072,-85L518,-88Z" fill="#9d9d9d" stroke="#9d9d9d" stroke-width="1.51"></path><path d="M1069,199L1072,-85L1066,80Z" fill="#636363" stroke="#636363" stroke-width="1.51"></path><path d="M173,-88L-99,-77L30,-81Z" fill="#f4f4f4" stroke="#f4f4f4" stroke-width="1.51"></path><path d="M30,-81L-99,-77L-40,-74Z" fill="#f7f7f7" stroke="#f7f7f7" stroke-width="1.51"></path><path d="M-40,-74L-99,-77L-96,-14Z" fill="#f7f7f7" stroke="#f7f7f7" stroke-width="1.51"></path><path d="M-96,-14L-99,-77L-105,129Z" fill="#ededed" stroke="#ededed" stroke-width="1.51"></path><path d="M-95,344L-102,421L-45,400Z" fill="#838383" stroke="#838383" stroke-width="1.51"></path><path d="M-45,400L-102,421L47,408Z" fill="#7b7b7b" stroke="#7b7b7b" stroke-width="1.51"></path><path d="M108,414L-102,421L502,413Z" fill="#6d6d6d" stroke="#6d6d6d" stroke-width="1.51"></path><path d="M-105,129L-102,421L-99,256Z" fill="#acacac" stroke="#acacac" stroke-width="1.51"></path></svg>